<svg preserveAspectRatio="none" width="100%" height="100%" overflow="visible" style="display: block;" viewBox="0 0 20 20" fill="none" xmlns="http://www.w3.org/2000/svg">
<g id="Frame">
<path id="Vector" d="M10 2.5H4.16667C3.72464 2.5 3.30072 2.67559 2.98816 2.98816C2.67559 3.30072 2.5 3.72464 2.5 4.16667V15.8333C2.5 16.2754 2.67559 16.6993 2.98816 17.0118C3.30072 17.3244 3.72464 17.5 4.16667 17.5H15.8333C16.2754 17.5 16.6993 17.3244 17.0118 17.0118C17.3244 16.6993 17.5 16.2754 17.5 15.8333V10" stroke="var(--stroke-0, #262B33)" stroke-width="1.66667" stroke-linecap="round" stroke-linejoin="round"/>
<path id="Vector_2" d="M15.3126 2.18749C15.6441 1.85596 16.0937 1.66972 16.5626 1.66972C17.0314 1.66972 17.4811 1.85596 17.8126 2.18749C18.1441 2.51901 18.3303 2.96864 18.3303 3.43749C18.3303 3.90633 18.1441 4.35596 17.8126 4.68749L10.3017 12.1992C10.1039 12.3969 9.85942 12.5416 9.59091 12.62L7.19674 13.32C7.12504 13.3409 7.04903 13.3422 6.97667 13.3236C6.90431 13.3051 6.83827 13.2674 6.78545 13.2146C6.73263 13.1618 6.69499 13.0958 6.67645 13.0234C6.65791 12.951 6.65916 12.875 6.68008 12.8033L7.38008 10.4092C7.45885 10.1409 7.60386 9.8967 7.80175 9.69915L15.3126 2.18749Z" stroke="var(--stroke-0, #262B33)" stroke-width="1.66667" stroke-linecap="round" stroke-linejoin="round"/>
</g>
</svg>
